<svg width="105" height="18" viewBox="0 0 105 18" fill="none" xmlns="http://www.w3.org/2000/svg">
<path d="M2.5058 10.0753C2.44316 10.0753 1.06497 10.0753 0.438515 10.0753C0.104408 10.0753 0 9.95006 0 9.63683C0 8.80157 0 7.94542 0 7.11015C0 6.77604 0.12529 6.67164 0.438515 6.67164H2.5058C2.5058 6.60899 2.5058 5.39785 2.5058 4.83405C2.5058 3.99878 2.65197 3.20528 3.06961 2.47442C3.50812 1.72268 4.13457 1.22152 4.92807 0.929176C5.45012 0.741241 5.97216 0.657715 6.53596 0.657715H8.58237C8.87471 0.657715 9 0.783005 9 1.07535V3.45586C9 3.7482 8.87471 3.87349 8.58237 3.87349C8.01856 3.87349 7.45476 3.87349 6.89095 3.89437C6.32715 3.89437 6.0348 4.16584 6.0348 4.75052C6.01392 5.37697 6.0348 5.98254 6.0348 6.62987H8.45708C8.79118 6.62987 8.91647 6.75516 8.91647 7.08927V9.61595C8.91647 9.95006 8.81207 10.0545 8.45708 10.0545C7.70534 10.0545 6.09745 10.0545 6.0348 10.0545V16.8619C6.0348 17.2169 5.93039 17.3422 5.55452 17.3422C4.67749 17.3422 3.82135 17.3422 2.94432 17.3422C2.63109 17.3422 2.5058 17.2169 2.5058 16.9037C2.5058 14.7111 2.5058 10.138 2.5058 10.0753Z" fill="#F7F7EE"/>
<path d="M58 3.72894C57.3678 4.00625 56.6942 4.19006 55.9919 4.27931C56.7144 3.84794 57.2658 3.17006 57.5251 2.353C56.8514 2.75462 56.1077 3.03831 55.3151 3.19663C54.6754 2.51556 53.7638 2.09375 52.7693 2.09375C50.8398 2.09375 49.2864 3.65988 49.2864 5.57981C49.2864 5.85606 49.3098 6.12169 49.3672 6.37456C46.4697 6.23325 43.9059 4.84456 42.1836 2.72913C41.8829 3.25081 41.7066 3.84794 41.7066 4.49075C41.7066 5.69775 42.3281 6.76769 43.2546 7.38713C42.6947 7.3765 42.1454 7.21394 41.68 6.95788C41.68 6.9685 41.68 6.98231 41.68 6.99612C41.68 8.68975 42.8881 10.0965 44.4722 10.4206C44.1886 10.4981 43.8794 10.5353 43.5585 10.5353C43.3354 10.5353 43.1101 10.5226 42.8987 10.4758C43.3503 11.856 44.6316 12.8707 46.1553 12.9036C44.9695 13.8312 43.4639 14.3901 41.8341 14.3901C41.5483 14.3901 41.2741 14.3773 41 14.3422C42.5438 15.3378 44.3734 15.9062 46.3465 15.9062C52.7597 15.9062 56.266 10.5938 56.266 5.98887C56.266 5.83481 56.2607 5.68606 56.2533 5.53838C56.9449 5.0475 57.5261 4.43444 58 3.72894Z" fill="#F7F7EE"/>
<path d="M104.996 16.4999V16.4993H105V10.9808C105 8.28105 104.425 6.20142 101.3 6.20142C99.7984 6.20142 98.7904 7.03402 98.3789 7.82337H98.3355V6.45346H95.3731V16.4993H98.4578V11.525C98.4578 10.2152 98.7035 8.94877 100.309 8.94877C101.891 8.94877 101.915 10.4435 101.915 11.609V16.4999H104.996Z" fill="#F7F7EE"/>
<path d="M90.2238 6.42554H93.3582V16.2763H90.2238V6.42554Z" fill="#F7F7EE"/>
<path d="M91.791 1.5C90.8023 1.5 90 2.29856 90 3.28269C90 4.26683 90.8023 5.08209 91.791 5.08209C92.7798 5.08209 93.5821 4.26683 93.5821 3.28269C93.5815 2.29856 92.7792 1.5 91.791 1.5V1.5Z" fill="#F7F7EE"/>
</svg>